<svg width="1154" height="481" viewBox="0 0 1154 481" fill="none" xmlns="http://www.w3.org/2000/svg">
<path fill-rule="evenodd" clip-rule="evenodd" d="M0 340.739L24.0417 360.473C48.0833 378.892 96.1667 417.044 144.25 435.462C192.333 455.196 240.417 455.196 288.5 426.253C336.583 397.31 384.667 340.739 432.75 340.739C480.833 340.739 528.917 397.31 577 407.835C625.083 417.044 673.167 378.892 721.25 378.892C769.333 378.892 817.417 417.044 865.5 444.671C913.583 473.614 961.667 492.033 1009.75 473.614C1057.83 455.196 1105.92 397.31 1129.96 369.682L1154 340.739V0H1129.96C1105.92 0 1057.83 0 1009.75 0C961.667 0 913.583 0 865.5 0C817.417 0 769.333 0 721.25 0C673.167 0 625.083 0 577 0C528.917 0 480.833 0 432.75 0C384.667 0 336.583 0 288.5 0C240.417 0 192.333 0 144.25 0C96.1667 0 48.0833 0 24.0417 0H0V340.739Z" fill="url(#paint0_linear)"/>
<defs>
<linearGradient id="paint0_linear" x1="577" y1="240.5" x2="577" y2="481" gradientUnits="userSpaceOnUse">
<stop stop-color="#0055B9"/>
<stop offset="1" stop-color="#0099FF" stop-opacity="0.79"/>
</linearGradient>
</defs>
</svg>
