<svg width="1440" height="614" viewBox="0 0 1440 614" fill="none" xmlns="http://www.w3.org/2000/svg">
<path fill-rule="evenodd" clip-rule="evenodd" d="M0 434.956L30 460.147C60 483.658 120 532.359 180 555.871C240 581.061 300 581.061 360 544.115C420 507.169 480 434.956 540 434.956C600 434.956 660 507.169 720 520.604C780 532.359 840 483.658 900 483.658C960 483.658 1020 532.359 1080 567.626C1140 604.572 1200 628.083 1260 604.572C1320 581.061 1380 507.169 1410 471.902L1440 434.956V0H1410C1380 0 1320 0 1260 0C1200 0 1140 0 1080 0C1020 0 960 0 900 0C840 0 780 0 720 0C660 0 600 0 540 0C480 0 420 0 360 0C300 0 240 0 180 0C120 0 60 0 30 0H0V434.956Z" fill="url(#paint0_linear)"/>
<defs>
<linearGradient id="paint0_linear" x1="720" y1="307" x2="720" y2="614" gradientUnits="userSpaceOnUse">
<stop stop-color="#0055B9"/>
<stop offset="1" stop-color="#0099FF" stop-opacity="0.79"/>
</linearGradient>
</defs>
</svg>
