<svg width="1323" height="306" viewBox="0 0 1323 306" fill="none" xmlns="http://www.w3.org/2000/svg">
<path fill-rule="evenodd" clip-rule="evenodd" d="M0 216.77L27.5625 229.324C55.125 241.041 110.25 265.313 165.375 277.03C220.5 289.584 275.625 289.584 330.75 271.171C385.875 252.758 441 216.77 496.125 216.77C551.25 216.77 606.375 252.758 661.5 259.454C716.625 265.313 771.75 241.041 826.875 241.041C882 241.041 937.125 265.313 992.25 282.889C1047.37 301.301 1102.5 313.019 1157.62 301.301C1212.75 289.584 1267.87 252.758 1295.44 235.183L1323 216.77V0H1295.44C1267.87 0 1212.75 0 1157.62 0C1102.5 0 1047.37 0 992.25 0C937.125 0 882 0 826.875 0C771.75 0 716.625 0 661.5 0C606.375 0 551.25 0 496.125 0C441 0 385.875 0 330.75 0C275.625 0 220.5 0 165.375 0C110.25 0 55.125 0 27.5625 0H0V216.77Z" fill="url(#paint0_linear)"/>
<defs>
<linearGradient id="paint0_linear" x1="661.5" y1="153" x2="661.5" y2="306" gradientUnits="userSpaceOnUse">
<stop stop-color="#0055B9"/>
<stop offset="1" stop-color="#0099FF" stop-opacity="0.79"/>
</linearGradient>
</defs>
</svg>
